<svg xmlns="http://www.w3.org/2000/svg" viewBox="0 0 371.52 370.8"><g id="Capa_3" data-name="Capa 3"><rect x="214.29" y="254.55" width="130.71" height="10.5"/><rect x="115.17" y="127.85" width="10.5" height="211.95" transform="translate(-56.2 38.94) rotate(-14.94)"/><rect x="89.89" y="45.98" width="10.5" height="130.66" transform="translate(-16.28 206.33) rotate(-89.94)"/><path d="M187.39,365h-.61C87.83,364.68,7.61,283.91,7.94,185A179.45,179.45,0,0,1,187.36,6.14H188c99,.34,179.17,81.1,178.84,180C366.48,284.92,286.05,365,187.39,365Zm0-348.38A169,169,0,0,0,18.44,185c-.31,93.15,75.22,169.19,168.37,169.5h.58c92.89,0,168.61-75.41,168.93-168.37C356.63,93,281.1,17,188,16.64Z"/><rect x="249.09" y="31.36" width="10.5" height="211.95" transform="translate(-26.8 70.2) rotate(-14.94)"/><rect x="80.81" y="180.33" width="213.14" height="10.5" transform="translate(-40.18 318.87) rotate(-75.08)"/></g></svg>