<svg xmlns="http://www.w3.org/2000/svg" viewBox="0 0 372.36 378"><defs><style>.cls-1{fill:#fff;}</style></defs><g id="Capa_3" data-name="Capa 3"><rect class="cls-1" x="29.03" y="110.43" width="130.71" height="10.5"/><rect class="cls-1" x="248.37" y="35.68" width="10.5" height="211.95" transform="translate(-27.94 70.16) rotate(-14.94)"/><rect class="cls-1" x="273.65" y="198.83" width="10.5" height="130.66" transform="matrix(0, -1, 1, 0, 14.44, 542.78)"/><path class="cls-1" d="M186.67,369.34h-.61C87.11,369,6.89,288.23,7.22,189.29,7.56,90.56,88,10.46,186.65,10.46h.61a179.45,179.45,0,0,1,178.84,180C365.76,289.24,285.33,369.34,186.67,369.34Zm0-348.38C93.76,21,18,96.37,17.72,189.33c-.31,93.15,75.22,169.19,168.37,169.5h.58c92.89,0,168.61-75.41,168.93-168.37l5.25,0-5.25,0C355.91,97.32,280.38,21.28,187.23,21Z"/><rect class="cls-1" x="114.45" y="132.17" width="10.5" height="211.95" transform="translate(-57.34 38.9) rotate(-14.94)"/><rect class="cls-1" x="80.09" y="184.65" width="213.14" height="10.5" transform="translate(-44.89 321.38) rotate(-75.08)"/></g></svg>